<?xml version="1.0" encoding="UTF-8"?>
<svg id="Layer_2" data-name="Layer 2" xmlns="http://www.w3.org/2000/svg" viewBox="0 0 1083.03 1079.15">
  <defs>
    <style>
      .cls-1 {
        fill: #010b1f;
      }

      .cls-2 {
        fill: #0e172c;
      }

      .cls-3 {
        fill: #020b1e;
      }

      .cls-4 {
        fill: #293145;
      }

      .cls-5 {
        fill: #444a5c;
      }

      .cls-6 {
        fill: #fbfbfb;
      }

      .cls-7 {
        fill: #192235;
      }
    </style>
  </defs>
  <g id="Layer_1-2" data-name="Layer 1">
    <rect class="cls-1" width="1083.03" height="1079.15"/>
    <path class="cls-2" d="M445.94,413.9c-.74.05-1.5-.06-2.25,0v1.49c-.73.06-1.55-.1-2.24,0-1,.15-4.61,1.39-5.24,1.9-.85.68-.63,1.72-.75,1.84-2.46,2.47-3.85,3.17-5.24,6.73-2.13-.61-1.35,1.37-1.5,1.5-.96.8-2.55-.81-4.33,3.52-9.53,23.17,20.23,38.46,34.96,49.28,24.73,18.16,49.56,36.2,74.87,53.84,17.52,12.21,29.76,25.89,53.33,17.29,11.91-4.35,20.58-13.84,30.62-21.01,18.83-13.44,37.52-26.67,56.14-40.4,11.78-8.68,38.52-24.66,45.92-35.64,3.47-5.14,4.68-14.7,2.53-20.41-.41-1.1-1.94-.99-2.13-1.75-.27-1.09.38-3.38-.04-3.94-.19-.26-1.16.1-1.44-.03-2.1-.96-.98-2.46-1.72-3.52-2.63-3.79-7.63-6.23-11-9.19,2.64-3.67,11.62,2.25,14.16,4.18,7.27,5.52,12.28,14.62,11.3,23.88-.34,3.19-4.61,13.17-1.39,15.21,1.41.9,16.39-3.59,19.76-3.65,15.19-.25,27.87,3.57,36.14,16.98,3.19,5.18,4.35,13.42,3.03,19.24-4.19,18.59-36.81,38.52-54.37,42.16-22.21,4.6-43.22-13.88-39.69-36.67l7.31-17.38-1.1-1.1c-4.98,3.27-10.27,6.11-15.15,9.55-21.09,14.87-41.68,30.9-62.58,45.93-5.72,4.11-9.79,7.36-14.77,12.18-1.23,1.19-4.1.98-3.69,4.14,1.61.3,1.97-.2,3-1.14,8.83-7.98,20.72-15.52,32.18-20.17,18.81-7.63,42.95-8.02,54.51,11.34,5.36,8.97,4.25,16.36.52,25.7-.94,2.36-3.93,4.18-3.39,7.46,16.59-4.56,29.19-18.42,44.24-25.72,6.85-3.32,9.87-2.56,15.82-4.26.63-.18.55-1.29,1.09-1.41,4.69-1.11,19.58,2.05,24.21,4.06,5.4,2.34,12.33,11.24,13.68,17,.7,3,.95,9.14.47,12.16-.48,3.01-7.14,13.13.99,11.48,1.21-.25,7.58-4.2,9.06-5.18,1.02-.68,1.39-2.01,2.46-2.78,7.57-5.44,18.21-8.75,7.02-18.46-3.84-3.33-11.31-8.15-14.58-11.61-.7-.74-6.41-10.45-6.97-11.73-4.31-9.69-3.21-23.02,3.26-31.56,9.43-6.05,19.97-9.41,31.34-8.25,25.43,2.61,52.5,29.25,71.15,45.59,8.02,7.03,15.57,9.19,17.55,22.11,1.47,9.62-3.11,18.99-8.46,26.61-4.31,6.13-5.48,5.42-10.9,9.3-30.54,21.84-60.07,45.92-91.13,67.51-14.93,10.38-24.83,14.18-43.1,8.93-11.77-3.39-22.98-18.7-23.08-30.86-.04-4.86,2.69-9.83.79-14.56-.6-.41-5.14,1.36-5.93,1.9-3.43,2.34-7.62,6.72-10.9,9.29-29.28,22.98-59.17,44.72-89.37,66.27-16.79,11.98-36.29,31.18-58.1,31.03-19.78-.14-26.79-9.48-41.87-18.77-7-4.32-9.21-7.47-15.43-12.26-8.86-6.82-19.28-13.01-28.33-19.56-17.77-12.84-35.41-26.55-53.14-39.65-4.74-3.5-18-15.66-22.3-16.61-1.3-.29-2.63-.2-3.95-.17,2.4,11.58,1.93,23.26-5.68,32.85-8.55,10.78-22.33,14.84-35.66,12.57-21.01-3.59-47.63-29-65.04-41.97-16.84-12.56-34.78-23.93-50.8-37.5-3.96-3.35-13.91-12.59-15.77-17.15-5.87-14.36,1.67-27.69,12.27-36.79,29.75-19.6,54.97-58.06,95.13-45.1,9.81,3.16,18.07,16.14,17.58,26.39-.38,7.88-7.26,19.22-12.75,24.73-3.88,3.89-10.25,7.88-14.47,11.71-5.1,5.75,4.03,13.04,8.62,16,3.29,2.12,6.56,2.53,9.47,4,2.04,1.03,2.82,3.61,5.45,3.15.78-3.39-2.51-5.9-2.95-8.64-1.46-9,1.51-22.45,9.31-28.02,7.68-5.49,26.61-8.98,35.97-8.25,3.44.27,6.62,2.52,10.08,1.14.31-3.86-3.02-3.92-4.88-5.6-13.55-12.23-44.57-27.5-48.79-45.49-1.34-5.72-.61-15.24,2.34-20.38,10.26-17.86,35.65-17.47,53.44-13.68,2.88.61,5.19,2.4,8.35,1.75.49-.48-3.43-11.04-3.68-13.15-.54-4.63-.27-11.31,1.41-15.68,3.43-8.94,16.81-19.49,26.64-18.33,1.69.2,2.59.24,2.58,2.28ZM382.31,459.53c-3.78.6-5.11,1.16-8.24,4.11-2.44,2.29-4.15,6.85-4.48,7.11-.22.17-1.31-.19-1.5,0s.17,1.29,0,1.49c-.08.1-1.47.15-2.29,1.05-3.73,4.09-2.42,15.01-.25,19.82,5.93,13.17,46.84,39.15,60.12,49.13,35.72,26.84,71.09,54.61,107.34,80.49,23.69,16.91,36.36,29.32,65.55,11.37,17.55-10.78,35.74-26.2,52.3-38.45,15.3-11.32,44.42-24.91,39.68-48.07-.41-1.98-2.96-7.04-5.07-7.27-.49-.05-1,.04-1.5,0-1.56-3.88-4.55-7.69-8.23-9.72v-2.25s-1.49,0-1.49,0v1.49c-.5-.19-1.6.13-2.25,0v-1.49c-.81-.31-1.41.74-1.5.74-.74.06-1.5-.03-2.25,0l-.47-1.51-4.78.02v1.49c-.49,0-.99,0-1.49,0-1.06.01-4.2-1.3-3.74,1.5-.38.02-1.42.06-1.5,0-.08-.07.32-1.29-.49-1.51-3.85-1.04-10.76,2.44-14.25,4.35-19.29,10.57-35.53,26.32-53.66,38.42-3.13,2.09-6.24,4.93-10.23,6.19-3.53,1.11-5.17,1.37-8.72-.19-7.56-3.33-20.47-14.15-27.57-19.57-34.04-26.02-67.25-53.72-102.66-78.43-5.5-3.84-18.74-12.97-24.25-15.41-.88-.39-6.42-2.13-7.43-2.35-1.41-.3-2.19,0-2.99,1.17-.09-.07-1.38-.32-2.25-.75.46-1.98-1.48-1.81-2.99-2.24-.41-.12-1.06.11-1.5,0v-2.24s-1.5,1.5-1.5,1.5c-.46-.09-1.02.07-1.5,0v-1.49s-1.87,0-1.87,0l-.38.74c-2-.19-4.69-.11-6.74,0l-2.99-.75v1.49ZM746.84,461.77c-1.19-1.06-4.78-.15-6.16.21-10.44,2.73-27.69,15.1-34.66,23.71-17.52,21.64,3.73,46.91,28.47,44.16,9.89-1.1,33.69-16.06,40.53-23.46,7.91-8.55,12.7-19.13,8.67-30.96-.35-1.02-4.24-8.05-6.17-5.43-.38-1.23-4.35-5.66-5.63-6.71-7.09-5.83-17.24-6.04-25.06-1.51ZM308.96,508.15c-5.46-.83-9.95,2.79-14.17,5.66-9.99,6.79-18.35,15.67-28.57,22.32-1.03.67-2.94.77-3.51,1.35-.79.8-.47,2.74-1.11,3.39-.86.88-5.43,2.18-6.52,2.84-1.47.89-8.53,8.87-9.63,10.56-6.07,9.36-7.03,17.5-1.49,27.42,6.13,10.98,29.67,25.86,40.24,33.84,16.72,12.63,33.25,25.84,50.26,38.04,16.73,12,34.51,26.86,55.56,14.51,13.24-7.77,14.98-25.48,7.57-37.95-8.35-14.07-37.85-31.9-51.4-41.97-4.79-3.56-19.85-14.71-22.1-19.22-1.98-3.97,1.54-7.48,4.28-10.33,10.6-10.97,27.72-18.56,23.78-37.91-.63-3.08-5.22-9.85-7.65-11.89-1.27-1.07-1.77.12-1.88.09-1.3-.34-2.51-2.51-3.79-3.32-11.59-7.37-19.61-4.61-29.89,2.57ZM805.23,508.89c-.13.09-1.63.1-3.03,1.07-6.49,4.52-6.85,16.39-4.51,23.29,4.05,11.92,18.65,18.75,25.51,27.61,3.71,4.79,2.4,7.17-1.03,11.35-4.51,5.51-12.54,9.68-18.09,13.71-14.12,10.23-46.59,32.07-54.86,46.16-11.3,19.23,3.76,40.2,24.9,39.91,15.3-.21,40.17-22.49,52.85-31.77,20.06-14.67,47.16-32.07,65.09-48.66,8.8-8.13,14.96-18,10.99-30.45-.32-1-3.9-7.56-4.46-7.9-.77-.48-1.81-.03-2.05-.17-2.06-1.19-14.22-11.33-16.47-13.46-.63-.6.89-.29-1.5-1.5-.25-.13-.47-.61-.75-.75.34-3.8-1.48-3.02-2.69-4.01-9.84-8.01-17.2-13.91-28.75-19.18-.53-.24-.98-.25-1.5-.75-.61-.59.56-.72-2.25-2.24-.47-.25-.93-.41-1.5-.75-.26-3.02-3.32-3.11-4.62-3.8-.8-.42-.58-.73-2.11-1.44-8.09-3.71-15.35-6.08-23.72-.89-2.09,1.3-3.45,3.15-5.47,4.63ZM385.31,547.04c-.49.03-1.02-.07-1.5,0l-.38-.74h-1.11s0,1.49,0,1.49c-5.1,1.27-10.44,4.2-11.99,9.72-.48.02-1,.07-1.48,0-.2-.02-.36-.95-1.43-.43-3.22,1.57-5.52,6.53-5.86,9.98-1.6,16.45,17.11,29.65,28.21,38.74,42.25,34.63,88.98,66.48,133.2,98.77,18.05,13.18,35.86,33.78,60.3,26.43,19.27-5.8,56.74-37.92,74.58-51.14,33.15-24.55,66.96-48.79,99.45-74.16,9.52-7.43,26.81-21.36,26.24-34.35-.16-3.71-1.34-14.83-6.73-13.85-1.94-5.89-10.85-10.71-16.85-11.21-8.16-.68-13.51,3.07-19.83,7.47-.76-1.45-2.45-.59-3.53-.17-10.2,3.96-29.6,18.39-38.78,25.62-5.05,3.97-12.48,8.19-18.27,12.37-31.13,22.49-60.86,47.63-92.92,69.46-10.03,6.83-14.52,9.12-24.9,1.07-6.99-5.41-12.23-9.83-19.46-14.97-40.74-28.97-82.2-64.97-124.68-90.08-8.22-4.86-7.57-6.68-18.02-7.05-.25,0-.5,0-.75,0,.47-1.85-1.46-1.95-2.99-2.24-.67-.13-1.55.11-2.25,0v-1.49s-1.87,0-1.87,0l-.38.74c-.49-.04-1,.02-1.5,0v-1.49s-4.02-.02-4.02-.02l-.47,1.51ZM603.87,550.04c-2.35-.08-3.62,2.22-5.46,3.14-13.7,6.84-28.14,8.96-42.43,2.46l-16.47-9.34c-.26,1.43.23,2.03,1.07,3.04,1.96,2.35,7.3,5.77,9.82,8.14,5.06,4.77,10.18,11.18,16.54,14.89,6.2,3.61,9.32,1.83,14.72-1.53,7.03-4.37,15.29-11.21,20.73-17.43.79-.9,1.63-2.1,1.49-3.36ZM597.14,642.79c-2.82-.25-4.7,2.13-7.14,2.95-6.43,2.15-16.46,3.66-23.16,3.02-2.93-.28-6.18-1.57-9.14-2.1-2.75-.5.76,4.02,1.29,4.71,2.41,3.13,10.37,10.35,14.4,9.97,1.66-.16,9.38-4.35,11.01-5.48,3.5-2.44,8-7.3,11.27-10.43.81-.78,1.75-1.32,1.48-2.63Z"/>
    <path class="cls-6" d="M702.68,414.65c.27.03,1.36,1.13,2.25.75h1.5c3.37,2.96,8.38,5.41,11,9.19.74,1.06-.38,2.56,1.72,3.52-.34,4.27.79,9.46-.75,13.46-1.46,3.8-7.21,8.73-10.48,11.22-35.89,27.32-76.21,56.73-113.54,82.14-5.63,3.83-10.88,7.69-17.45,9.86-.5.01-1-.03-1.5,0-.99.06-2-.05-2.99,0-.5.03-1-.04-1.5,0-1.06-1.25-2.7-.5-3.74-.75-1.26-.3-3.1-1.05-4.49-1.5l-29.26-22c-32.88-21.88-63.15-48.11-96.5-69.25-.6-.38-1.14-.53-1.5-.75.56-1.92-1.33-1.32-1.5-1.5-.37-.38-.13-2.65-2.25-2.24-.22-.4-.59-1.11-.75-1.5-2.61-6.31-3.27-13-.75-19.45,1.39-3.56,2.78-4.26,5.24-6.73,1.84-1.15,6.39-1.52,5.99-3.74.7-.1,1.51.06,2.25,0,2.76-.21,6.18-.11,8.98,0,.49.02,1.02-.06,1.5,0l.03,1.47,1.47.02c.15.18,3.88,1.4,4.49,1.5,3.83,3.47,8.22,6.52,12.48,9.63.85.62,2.06.56,2.49.84.18.12.41.51.75.75.11.08-.07.38,1.5,1.5,1.51,1.07,2.97,1.98,4.49,2.99.11.07-.47.3,1.5,1.5,1.19.73,1.64,1,2.99,1.5-.03,1.58,2.64,3.18,3.81,4.05,23.09,17.31,46.92,33.7,70.3,50.55.12.08-.15.31,1.5,1.5,2.23,1.61,4.52,2.96,6.74,4.49.11.08-.5.24,1.5,1.5.82.51,1.18,1.52,2.62,1.48,1.05-.04,1.8-.98,2.62-1.48,2.16-1.29,1.38-1.41,1.5-1.5,3.27-2.29,7.46-3.98,9.73-7.48.25-.03.5.02.75,0,3.54-.32,14.37-10.11,17.96-12.72.7-.51,1.5-.96,2.25-1.5,2.19-1.57,6.75-3.1,7.49-5.98.58-.25,1.08-.57,1.5-.75,6.66-2.85,17.18-11.86,23.6-16.48.9-.65,2.23-.53,1.85-2.22.24-.06.51.05.75,0,2.49-.47,1.92-1.36,2.99-2.24,1.23-1.01,2.44-2.08,3.74-2.99.25-.17.84-.25,1.5-.75.72-.54,1.51-.98,2.25-1.5,1.81-1.27,2.08-1.31,3.74-2.99.25-.25.5-.5.75-.75,1.53-.51,4.11-1.13,3.74-2.99.49-.26,1-.49,1.5-.75,1-.52,2.41-.03,2.25-2.24,7.12-3.34,12.61-9.32,18.71-13.46.85-.58,2.05-.98,2.99-1.5,1.48-.81,4.99-.7,4.49-2.99.42-.1,1.02.08,1.5,0,1.01-.16,2.13-.74,2.25-.75,2.1-.16,5.44-.23,7.49,0Z"/>
    <path class="cls-6" d="M505.82,373.51c1.74,0,3.5-.03,5.24,0,.75.01,1.5-.01,2.25,0,.91,1.25,2.6,1.01,3.74,1.5.73.32,1.82.52,2.25.75,2.93,1.61,11.66,8.11,14.97,10.47.11.08-.17.31,1.5,1.5.74.53,1.53.98,2.25,1.5.11.08-.05.39,1.5,1.5,1.04.74,2.42,1.09,2.99,1.5,1,.72,1.95,1.5,2.99,2.24,5.82,4.19,12.03,8.49,17.96,12.72.11.08-.15.32,1.5,1.5.56.4,1.28.58,1.5.75.11.09-.27.26,1.5,1.5,1.11.78,2.77,1.32,2.99,1.5.17.13.71,3.74,2.88,2.08.28-.21,0-1.25.11-1.33.21-.16,3.1-1.33,4.49-2.24,1.92-1.26,1.38-1.42,1.5-1.5,2.24-1.55,4.49-2.82,6.74-4.49.42-.31,1.07-.44,1.5-.75.15-.11.97.24,1.35-.14.37-.36.03-1.16.14-1.36.14-.26.58-.47.75-.75,1.67-.59,4.94-.91,4.49-2.99.53-.23,1-.52,1.5-.75,1.53-.7,3.78-.39,3.74-2.99.5-.25,1-.49,1.5-.75,2.33-1.19,1.38-1.43,1.5-1.5.8-.48,1.89-.79,2.99-1.5.19-.12,1.08.24,1.41-.08.35-.34-.04-1.19.09-1.41.06-.11.52.09.75,0,2.76-1.07.84-.82,1.5-1.5.06-.06.99-.39,1.5-.75,1.63-1.17,1.38-1.42,1.5-1.5.67-.44,1.89-.73,2.99-1.5,1.77-1.22,1.38-1.42,1.5-1.5.83-.58,2.08-.93,2.99-1.5.66-.41,1.24-.67,1.5-1.5,1.55-.79,2.28-1.83,2.99-2.24,2.16-1.25,4.51-2.26,6.74-2.99.97-.32,4.6-1.43,5.24-1.5.69-.07,1.54-.04,2.25,0,1.55.08,5.15.98,6.74,1.5.95.31,3.01,1.04,3.74,1.5.42.26.99.74,2.25,1.5.12.07-.05,1.26,1.5,2.24-.21,1.31.16,1.77,1.5,1.5.35.62,1.46,2.12,1.5,2.24.83,2.71.73,6.21,1.5,8.98-1.49,1.05-.02,1.92,0,2.24.07.93.07,2.06,0,2.99l-1.44.04c.04,2.13-.94,3.99-1.55,5.94-.07.23.07.52,0,.75l-62.34,45.05c-12.17,8-17.44,13.04-31.92,4.64-22.52-13.07-44.54-33.54-66.68-47.44.2-1.36-1.16-1.74-1.5-2.24-.67-1,.06-3.58-2.25-2.99-.75-2.99-.75-5.91-.75-8.98,0-3.1.28-5.93.75-8.98,2.74-1.56,4.6-6.45,9.73-8.98,1.04-.51,2.87-.22,3.74-1.5.75.02,1.5,0,2.25,0Z"/>
    <path class="cls-2" d="M505.82,372.01v1.5c-.75,0-1.5.02-2.25,0-.85-.02-3.94-1.76-3.74,1.5-5.13,2.52-6.99,7.42-9.73,8.98-.37.21-1.65.03-2.68.69-4.77,3.07-7.06,11.23-6.12,16.72,2.62,15.2,19.38,25.17,31.32,33.77,12.26,8.83,40.01,29.56,53.5,32.56,19.42,4.32,40.3-14.17,55.46-24.52,9.11-6.22,18.82-12.15,27.58-18.82,8.52-6.49,15.82-13.34,15.37-25.09-.18-4.74-2.52-14.74-8.26-15.31-.04-.13-1.14-1.63-1.5-2.24-.13-.22.23-1.12-.07-1.42-.32-.32-1.22.06-1.43-.07-1.55-.98-1.38-2.17-1.5-2.24v-1.5c14.41.41,20.36,17.73,17.8,30.13-.59,2.86-3.75,6.52-2.83,10.26,5.97.61,10.17-2.81,16.24-3.4,1.45-.14,8.02-.77,7.71,1.91-1.31.38-4.33,1.5-3.74,2.99-.95.52-2.14.92-2.99,1.5-2.29-4.72-10.48.45-13.72,2.37-6.3,3.74-13.72,9.45-19.91,13.77-20.47,14.29-40.24,29.59-60.64,44.12-7.27,5.18-11.52,12.11-21.69,7.36-10.89-5.08-24.8-18.23-34.85-25.76-16.91-12.68-34.06-25.04-51.81-36.49-10.14-6.54-10.29-5.24-21.19-6.87-.62-.09-4.34-1.31-4.49-1.5-.51-.64,1.22-1.16-1.5-1.5-.48-.06-1.01.02-1.5,0v-1.49c-.74-.06-1.5.05-2.25,0-.38-1.59.82-1.88,2.05-2.07,5.24-.79,18.24,3.62,21.91.96,1.66-1.2-.61-7.51-.74-9.74-.94-15.3,13.45-35.67,30.32-32.52,1.52.28,1.74,1.45,1.85,1.49Z"/>
    <path class="cls-6" d="M776.78,557.52c.18.54-.13,1.57,0,2.24,1,5.37.76,7.43,0,12.72-.1.71.14,1.6,0,2.24-1.95-.46-1.85,1.46-2.25,2.99-4.11,4.53-6.32,7.31-11.98,10.47-.48.27-1.88-.56-1.5,1.5-.3.23-.56.4-.75.75l-179.65,132.4c-.5,0-1-.04-1.5,0-2.72.2-5.49.52-8.23.75-.49.04-1-.04-1.5,0-.88-.9-1.86-.78-2.99-.75-.5.01-1,.01-1.5,0l-37.19-28.29-141.71-104.11c-.23-.06-.52.06-.75,0,.24-1.96-2.89-2.99-4.49-3.74-.2-.09-.52.08-.75,0,.22-2.25-1.41-1.74-2.25-2.24-8.39-5.03-11.1-12.21-9.73-21.69.25-1.75.78-3.45.75-5.24.48.06,1,0,1.48,0,1.56-5.51,6.89-8.45,11.99-9.72.65-.16,1.36-.73,1.5-.75.48-.07,1.01.03,1.5,0,1.43-.1,3.05-.06,4.49,0,.5.02,1.01-.04,1.5,0,.12.01,1.23.58,2.25.75.7.11,1.58-.13,2.25,0-.55,1.63,1.61,2.21,2.99,2.24.25,0,.5,0,.75,0,3.5,3.27,8.41,7.18,12.72,8.98-.37,1.6.92,1.59,1.8,2.27,41.29,31.65,84.39,62.81,126.94,92.72.12.08-.94.28,1.5,1.5.42.21,1.27.51,1.5.75.58.6-.45.12,1.5,1.5,1.43,1.01,3.21,2.04,4.49,2.99.11.08-.02.37,1.5,1.5,4.2,3.12,8.54,5.97,12.72,8.98.12.08-.94.29,1.5,1.5.43.21,1.26.51,1.5.75.52.52-.37.15,1.5,1.5,1.26.9,3.09,1.74,3.74,2.24.2.15-.54,2.36,1.49,1.49v-1.49c.26-.02.54.05.75,0,1.5-.38,4.13-1.24,3.74-2.99,3.16-1.74,4.75-3.33,7.49-5.24,1.73-1.2,1.38-1.42,1.5-1.5,38.8-26.84,76.22-56,114.36-83.96.38-.39.05-1.05.16-1.32,3.98-1.8,7.15-4.19,10.59-7,.98-.8,2.25-1.04,2.14-2.73.51-.25,1-.5,1.5-.75,1.45-.71,4.13-.96,3.74-2.99.5-.24,1-.49,1.5-.75,1.7-.87,4.45-1.25,4.49-3.74.49-.24,1.01-.52,1.5-.75.62-.29,1.92.64,1.5-1.5,5.02-2.38,7.21-5.43,11.23-8.23,6.32-4.4,11.67-8.15,19.83-7.47,6,.5,14.91,5.32,16.85,11.21Z"/>
    <path class="cls-6" d="M392.04,458.78c.12.01,1.19.6,2.25.75.48.07,1.04-.09,1.5,0,.19.04.82.58,1.5.75.44.11,1.08-.12,1.5,0-.51,2.22,1.7,1.61,2.99,2.24.87.43,2.15.67,2.25.75,2.65,2.14,6.52,7.28,10.48,7.48v.75l.11,1.39c.35.35,1.22,0,1.39.11.56.39,1.28.58,1.5.75.11.09.06.4,1.5,1.5.8.6,1.61,1.02,2.25,1.5.11.09-.11.32,1.5,1.5,1.24.91,2.86,1.62,3.74,2.24.11.08-.38.26,1.5,1.5,1.57,1.03,2.03,1.31,3.74,2.24.14,2.57,3.5,3.39,5.24,4.49.75.47,1.35.98,2.25,1.5-.49,2.19,2.62,2.18,3.74,2.99.58.42,1.2.54,1.5.75.15.1.55,1,2.25,2.24.6.44,1.24.56,1.5.75.11.08-.05.36,1.5,1.5,1.47,1.08,2.66,1.52,3.74,2.24.11.08-.34.28,1.5,1.5.85.56.84.79,2.25,1.5-.4,2.13,2.41,2.22,3.74,2.99.38.22.82,1.81,2.25,1.5-.44,1.47,3.04,2.99,4.49,3.74.16.12.63-.13.75,0,.96,1.06-.14.66,2.25,2.24.45.3,1.13.44,1.5.75.11.09-.12.31,1.5,1.5,1,.73,1.99,1.5,2.99,2.24.88.65,1.68,1.08,2.25,1.5.9.67,1.66,1.07,2.25,1.5.11.08-.08.35,1.5,1.5,1.28.93,2.83,1.53,3.74,2.24.33.26-.77,1.14,2.25,2.24.22.08.54-.09.75,0-.08,2.64,3.15,2.8,4.49,3.74.59.41,1.25.57,1.5.75.11.08-.31.27,1.5,1.5,2.19,1.49,3.3,3.14,5.99,4.49.49,1.81,1.98,1.66,2.99,2.24.61.35.87.83,2.25,1.5-.31,2.13,1.76,1.7,2.99,2.24.48.21,1,.51,1.5.75-.02,2.11,1.94,2.73,3.74,2.99.28.39.59.56.75.75,2.13,2.65,1.75,1.82,4.49,3.74.6.42,1.2.55,1.5.75.12.08-.93.29,1.5,1.5.43.21,1.26.51,1.5.75.52.53-.32.17,1.5,1.5,1.45,1.06,2.7,1.53,3.74,2.24.11.08-.18.32,1.5,1.5.92.64,1.19.86,2.25,1.5-.37,2.13,3.2,2.86,4.49,3.74.17.12.64-.13.75,0,1,1.13-.13.67,2.25,2.24.45.3,1.13.44,1.5.75.11.09-.1.32,1.5,1.5,1.37,1.01,2.92,1.64,3.74,2.24.14.11.54.99,2.25,2.24.6.44,1.25.56,1.5.75.11.08-.07.35,1.5,1.5,1.48,1.08,2.59,1.49,3.74,2.24.15.1-.48.9,2.25,2.24.5.25.99.5,1.5.75-.37,1.6.92,1.59,1.8,2.27,1.41,1.08,6.71,5.52,7.72,5.82,2.11.63,5.88-1.13,6.19-3.6.24.03.5,0,.75,0,2.61-.03.99-.61,1.5-1.5.07-.12.54.1.75,0,1.41-.71,4.13-.93,3.74-2.99.51-.23,1-.51,1.5-.75,2.45-1.19,1.38-1.42,1.5-1.5,1.49-1.01,2.99-1.94,4.49-2.99,1.93-1.36,1-1.01,1.5-1.5.12-.12,1.86-.68,2.99-1.5,1.62-1.17,1.39-1.41,1.5-1.5.63-.47,1.48-.94,2.25-1.5,1.61-1.16,1.38-1.41,1.5-1.5.85-.61,2.38-1.26,3.74-2.24,1.61-1.16,1.38-1.42,1.5-1.5.86-.61,2.4-1.29,3.74-2.24,1.71-1.21,1.39-1.41,1.5-1.5.21-.17.94-.36,1.5-.75.16-.12,1.03.23,1.38-.11.38-.37,0-1.18.12-1.38.06-.11.51.09.75,0,2.74-1.03.83-.77,1.5-1.5.25-.27,1.07-.46,1.5-.75,2.06-1.37,2.1-2.14,2.25-2.24.51-.34,1.79-.71,2.99-1.5.15-.1.85.19,1.38-.12.38-.22,0-1.18.12-1.38.06-.11.51.09.75,0,2.75-1.04.84-.8,1.5-1.5.22-.23,1.08-.54,1.5-.75,2.57-1.26.83-.79,1.5-1.5.26-.27,1.07-.46,1.5-.75,2.35-1.56,1.61-1.65,2.25-2.24.36-.34,6.97-4.45,8.23-5.24.44-.27,1.99.73,1.5-1.5,1.9-.96,2.99-2.01,4.49-2.99,2.55-1.66,5.22-3.17,7.49-5.24.07.06,1.12.02,1.5,0,1.24-.08,2.86-.55,3.74-1.5.5,0,1,0,1.5,0,1.74-.02,3.5.06,5.24,0,.74-.03,1.51.06,2.25,0l1.5.75c.65.13,1.75-.19,2.25,0,.33.13,1.13.54,1.5.75,3.68,2.04,6.67,5.84,8.23,9.72.12.31-.16,1.01.02,1.47l1.47.03v3.74c0,1.98.12,4.01,0,5.98-.06.99.1,2.02,0,2.99-2.07-.34-2.76,4.75-3.74,6.73-2.58,1.58-5.31,3.25-7.55,5.55l-93.5,67.76c-.7.1-1.52-.07-2.25,0-6.44.61-6.73.18-12.72-.75-.7-.11-1.59.13-2.25,0l-191.62-144.37c-.55-1.45-1.06-3-1.5-4.49-.4-1.37-1.28-3.47-1.5-4.49-.58-2.7-.96-5.44-.75-8.23l1.45-.05.05-1.45c.34-.26,2.05-4.82,4.48-7.11,3.13-2.95,4.46-3.51,8.24-4.11,1.02-.16,2.84-.74,2.99-.75,2.04-.11,4.74-.19,6.74,0Z"/>
    <path class="cls-6" d="M342.64,508.89c-.34,1.79,1.13,3.14,1.5,4.49.14.52.71,2.73.75,2.99.1.7-.03,1.51,0,2.24.6,15.65-7.24,16.54-16.47,25.43-.67.64-.15-.93-1.5,1.5-.16.28-.6.49-.75.75-2.43-.63-2.82,1.56-3.74,2.24-.98.73-2.02,1.54-2.99,2.24-5.42,3.91-11.15,7.54-16.47,11.62-.47,1.88,6.47,5.8,8.23,6.33.02,1.37-.2,1.7,1.5,1.5,21.61,17.42,44.97,33.39,66.23,50.84,11.12,9.13,16.37,12.03,14.61,28.44l-1.39.09-.86,3.65c-.81.88-.97,1.21-1.5,2.24l-8.23,5.98c-.74-.02-1.5-.01-2.25,0-7.65.15-9.36.53-16.41-3.43-34.64-27.02-72.68-51.28-106.73-78.87-.67-.54-1.67-.56-1.86-.73-6.07-5.17-6.95-13.39-5.24-20.94.34-1.48,1.39-4.75,2.44-5.79.62-.61,1.99-.68,2.75-1.34,16.04-13.99,37.2-30.03,54.68-42.24,10.28-7.18,18.3-9.94,29.89-2.57,1.28.81,2.49,2.98,3.79,3.32Z"/>
    <path class="cls-6" d="M834.42,505.15c.2,2.53,4.66,4,6.74,5.24.56.33,1.03.5,1.5.75-.08,1.5.76,2.23,2.25,2.24.52.5.97.51,1.5.75-.38,1.69.95,1.57,1.85,2.22,9.67,6.96,19.18,15.73,29.58,20.96.28.14.49.62.75.75-.27,1.37.15,1.72,1.5,1.5,2.25,2.13,14.41,12.27,16.47,13.46,1.81,4.8,1.94,9.88,2.25,14.96l-1.44.04c-.13,1.79-.73,4.4-1.55,5.94-.5.93-2.94,3.77-3.74,4.49-.18.16-1.21.18-1.86.73-33.78,28.19-73.17,52.67-107.93,79.93-7.26,3.69-12.01,4.23-19.2,0-3.2-1.89-4.94-4.94-7.99-6.6-.22-.96-.62-2.23-.75-2.99-.38-2.21-.43-4.76-1.5-6.73.1-.72-.09-1.52,0-2.24.18-1.39.85-2.16.75-4.49-.01-.25.02-.5,0-.75l.75-2.24c2.21-2.12,4.29-5.53,7.49-8.23,1.68-1.42,3.87-2.47,5.99-4.49.59-.57.89-.77,1.5-1.5,1.81-.61,5.59-2.86,6.72-4.16.74-.85.6-1.6.76-1.82,10.94-5.71,24.64-17.52,34.87-25.4.88-.68,2.17-.67,1.8-2.27,2.73-1.63,4.21-2.7,6.74-4.49,1.56-1.11,1.39-1.42,1.5-1.5,2.76-2.01,5.49-3.92,8.23-5.98,1.77-1.34.74-.68,1.5-1.5.26-.28,1.09-.44,1.5-.75,1.64-1.22,11.03-6.37,10.48-8.58-7.76-5.4-15.43-12.86-23.25-17.95-1.16-.75-2.33-.79-2.95-1.15-1.32-3.12-2.41-2.16-4.49-3.74-.57-.43-1.29-.58-1.5-.75-.14-.11-1.58-1.62-2.25-2.24-2.41-2.28-3.98-4.46-5.24-7.48-.3-.71.73-1.91-1.5-1.5-.04-.24.04-.5,0-.75-.28-1.9-.73-4.13-.75-5.98,0-.49-.03-1,0-1.5.3-4.42,2.52-6.51,3.74-10.47,2.02-1.48,3.38-3.33,5.47-4.63,8.37-5.19,15.63-2.82,23.72.89Z"/>
    <path class="cls-6" d="M777.53,470c.17.53-.09,1.55,0,2.24.13,1.04-.27,2.1.75,2.99-.15,1.18.19,2.6,0,3.74-.9,5.53-1.92,10.31-5.99,14.21-.74.71-1.76,1.79-2.25,2.24-.25.23-.58.64-.75.75-7.65,4.99-28.04,21.55-35.15,22.85-8.86,1.62-13.24-1.03-20.25-5.65-.48-.76-1.12-1.6-1.5-2.24-1.35-2.31-.85-.88-1.5-1.5-.16-.15-.58-2.36-.75-2.99-1.15-4.33-1.16-9.11,0-13.46.17-.64.59-2.84.75-2.99.71-.67.17.3,1.5-1.5,3.34-4.51,16.55-14.23,21.71-17.95.61-.44,1.41-.9,2.25-1.5.61-.43,1.43-.92,2.25-1.5,2.43-1.71,5.96-4.67,8.23-5.98,7.82-4.52,17.97-4.32,25.06,1.51,1.28,1.05,5.25,5.48,5.63,6.71Z"/>
    <path class="cls-7" d="M308.96,508.15c-17.49,12.21-38.64,28.25-54.68,42.24-.76.67-2.13.74-2.75,1.34-1.05,1.03-2.11,4.3-2.44,5.79-1.52-.33-1.7.8-2.25,1.83-4.65,8.75-1.32,18.86,4.5,26.22,35.91,28.82,72.45,58.15,111.86,81.95,12.3,5.06,31.09-.17,34.67-14.06,1.07-4.14-.44-17.19-3-20.22-.53-.63-2.07-.48-2.65-1.08-1.08-1.12-.7-3.98-3.9-6.95-3.5-3.25-7.77-5.81-10.76-9.03-2.99-3.22-5.39-6.74-9.19-9.18-8.4-5.39-20.44-13.14-27.93-19.99-4.59-4.19-9.16-6.78-14.43-10.99-1.04-.83-2.85-1.04-3.34-1.52-.29-.29-3.55-6.84-3.63-7.25-1.66-7.84,22.83-22.09,26.75-30.92,2.46-5.53,2.97-10.21,1.47-15.99-.49-1.91.33-1.97-2.36-1.72-.03-.73.1-1.54,0-2.24l1.49-1.86-2.24-1.13c-.37-1.35-1.84-2.7-1.5-4.49.11.03.61-1.16,1.88-.09,2.42,2.05,7.02,8.81,7.65,11.89,3.94,19.35-13.18,26.94-23.78,37.91-2.75,2.85-6.27,6.35-4.28,10.33,2.25,4.51,17.31,15.66,22.1,19.22,13.54,10.07,43.04,27.9,51.4,41.97,7.41,12.47,5.67,30.18-7.57,37.95-21.05,12.35-38.83-2.51-55.56-14.51-17.01-12.2-33.54-25.41-50.26-38.04-10.57-7.98-34.11-22.86-40.24-33.84-5.54-9.92-4.59-18.06,1.49-27.42,1.1-1.69,8.16-9.67,9.63-10.56,1.09-.66,5.66-1.96,6.52-2.84.64-.65.32-2.59,1.11-3.39.57-.58,2.48-.68,3.51-1.35,10.22-6.65,18.58-15.54,28.57-22.32,4.22-2.87,8.72-6.49,14.17-5.66Z"/>
    <path class="cls-7" d="M805.23,508.89c-1.23,3.96-3.44,6.06-3.74,10.47h-1.49s0,1.11,0,1.11l1.5.38c.02,1.85.47,4.08.75,5.98-2.1-.47-1.67,1.3-1.55,2.64,1.12,12.35,17.51,21.61,25.54,29.11,5.96,5.57,2.48,10.29-1.8,15.11-.89,1-3.96,3.11-4.64,4.02-.75,1,.36,1.26.41,1.48.11.41-.07,1.02,0,1.5-2.52,1.78-4.01,2.86-6.74,4.49-12.87,7.69-27.89,15.23-36.68,27.68-4.75,2.48-4.55,2.49-7.49,5.98-.61.72-.9.93-1.5,1.5-2.94.26-5.93,1.16-5.99,4.49-3.2,2.7-5.27,6.11-7.49,8.23-.13.12-1.04-.16-1.47.02-.58,1.05.7,2,.72,2.23.02.25-.01.5,0,.75-1.93-.52-1.28,1.25-1.5,1.5-.1.12-1-.49-1.63,1.01-2.26,5.36-.59,12.82,1.85,17.84,4.8,9.85,17.49,13.07,27.68,10.9,11.09-2.37,27.17-17.2,36.54-24.07,24.86-18.25,52.31-36.79,75.18-57.27,1.04-.93,2.97-1.59,3.58-2.22.46-.48,2.54-6.51,2.66-7.4.22-1.63-.65-2.25-.64-2.38.08-.94.45-1.47.75-2.24h1.49c.31-.81-.74-1.41-.74-1.5-.06-.74.04-1.5,0-2.24-.31-5.08-.43-10.16-2.25-14.96.24.14,1.28-.3,2.05.17.56.35,4.14,6.9,4.46,7.9,3.97,12.45-2.2,22.32-10.99,30.45-17.93,16.58-45.02,33.98-65.09,48.66-12.69,9.28-37.55,31.56-52.85,31.77-21.15.29-36.2-20.67-24.9-39.91,8.28-14.08,40.74-35.92,54.86-46.16,5.56-4.03,13.58-8.2,18.09-13.71,3.43-4.18,4.74-6.56,1.03-11.35-6.86-8.85-21.46-15.69-25.51-27.61-2.35-6.9-1.98-18.77,4.51-23.29,1.4-.97,2.9-.98,3.03-1.07Z"/>
    <path class="cls-7" d="M428.72,427.36c-4.04,6.11-.02,12.12.75,17.95.01.09-.82.55-.64,1.65,1.67,10.66,22.53,21.98,30.54,27.94,28.13,20.94,56.21,43.15,85.27,62.89,11.33,7.69,26.13,16.19,39.97,10.56,11.95-4.86,23.26-14.08,33.84-21.53,28.34-19.96,56.14-40.43,83.53-61.64,6.64-5.15,16.61-10.79,17.94-20.24.16-1.13.73-3.94-1.51-3.37,1.54-4,.41-9.2.75-13.46.29.13,1.25-.24,1.44.03.42.56-.23,2.86.04,3.94.19.76,1.72.65,2.13,1.75,2.14,5.71.93,15.27-2.53,20.41-7.4,10.98-34.15,26.96-45.92,35.64-18.61,13.72-37.31,26.95-56.14,40.4-10.05,7.17-18.71,16.67-30.62,21.01-23.57,8.6-35.81-5.08-53.33-17.29-25.3-17.64-50.14-35.68-74.87-53.84-14.73-10.82-44.49-26.11-34.96-49.28,1.78-4.33,3.37-2.72,4.33-3.52Z"/>
    <path class="cls-7" d="M368.84,557.52c.03,1.79-.5,3.49-.75,5.24-3.54-.26-3.99,4.41-3.8,7.1.98,14.03,14.98,24.94,25.15,33.27,31.66,25.95,67.21,50.68,100.59,74.51,17.91,12.79,35.58,25.29,53.7,37.98,11.68,8.18,21.05,16.85,36.94,12.82,13.77-3.48,32.52-18.48,44.22-26.87,42.85-30.72,85.25-62.4,126.78-94.72,6.12-4.76,21.4-16.34,24.97-22.17,2.71-4.43,3.96-9.67,3.89-14.85-.02-1.43.72-3.02-1.51-2.59.07-2,.4-7.85-2.25-7.48-.13-.68.18-1.71,0-2.24,5.39-.98,6.57,10.14,6.73,13.85.57,12.99-16.72,26.92-26.24,34.35-32.49,25.36-66.3,49.61-99.45,74.16-17.84,13.21-55.31,45.34-74.58,51.14-24.44,7.35-42.25-13.25-60.3-26.43-44.22-32.29-90.95-64.14-133.2-98.77-11.1-9.1-29.81-22.3-28.21-38.74.34-3.45,2.64-8.41,5.86-9.98,1.07-.52,1.24.4,1.43.43Z"/>
    <path class="cls-7" d="M399.53,550.04c10.46.37,9.8,2.19,18.02,7.05,42.48,25.11,83.95,61.11,124.68,90.08,7.23,5.14,12.47,9.56,19.46,14.97,10.39,8.04,14.88,5.75,24.9-1.07,32.07-21.83,61.8-46.97,92.92-69.46,5.8-4.19,13.23-8.4,18.27-12.37,9.18-7.23,28.58-21.66,38.78-25.62,1.09-.42,2.78-1.28,3.53.17-4.02,2.8-6.2,5.85-11.23,8.23-.62.3-1.93-.74-1.5,1.5-.49.23-1.01.5-1.5.75-1.72.85-4.44,1.26-4.49,3.74-.5.25-1,.51-1.5.75-1.48.71-3.79.38-3.74,2.99-.5.24-.99.5-1.5.75-4.04,1.96-4.13,2.45-7.05,4.52-1.62,1.15-4.06.55-5.29,3-.45.9-.21,1.78-.39,2.2-2.8,1.26-4.56.93-6.55,1.71-.22.08-2.28,3.07-2.99,3.55-7.19,4.83-14.88,10.79-21.95,15.27-1.48.94-4.01,1.3-4.71,1.85-.8.63-.37,2.06-1.22,2.68-.74.54-2.3.36-3.43,1.08-1.09.7-1.48,2.4-2.25,2.99-11.86,9.11-24.57,17.53-36.51,26.35-12.87,9.52-26.78,21.51-39.99,29.77-4.86,3.04-7.26,3.36-12.95,1.95-7.36-1.83-26.54-18.54-34.46-23.94-4.29-2.92-8.77-6.18-13.02-9.39-23.23-17.58-46.82-34.31-69.73-51.5-8.84-6.63-18.78-12.42-27.42-18.82-6.07-4.5-5.56-3.84-12.51-6.73-4.31-1.79-9.22-5.7-12.72-8.98Z"/>
    <path class="cls-7" d="M368.09,472.24c-.21,2.79.17,5.52.75,8.23-.99.47-.53,1.85-.75,2.24-.78,1.4-1.73.49-1.44,4.01.68,8.15,10.8,16.52,16.81,21.4,36.27,29.49,77.25,57.17,115.05,85.32,16.86,12.56,39.83,33.56,57.7,42.75,24.98,12.85,43.39-6.77,61.95-19.92,19.67-13.93,42.65-28.64,60.19-43.83,4.38-3.79,9.51-12.72,10.01-18.51.17-1.9-1.26-2.45-1.38-3.17-.27-1.56.2-3.59,0-5.24h-1.5v-5.23c2.11.24,4.66,5.29,5.07,7.27,4.74,23.16-24.38,36.75-39.68,48.07-16.56,12.25-34.76,27.66-52.3,38.45-29.2,17.94-41.86,5.54-65.55-11.37-36.25-25.88-71.61-53.65-107.34-80.49-13.28-9.98-54.19-35.95-60.12-49.13-2.17-4.81-3.48-15.73.25-19.82.82-.9,2.21-.95,2.29-1.05Z"/>
    <path class="cls-7" d="M404.02,463.27c.8-1.17,1.58-1.47,2.99-1.17,1.02.22,6.55,1.96,7.43,2.35,5.51,2.44,18.75,11.57,24.25,15.41,35.41,24.71,68.62,52.41,102.66,78.43,7.1,5.43,20.01,16.25,27.57,19.57,3.55,1.56,5.19,1.31,8.72.19,3.99-1.26,7.1-4.11,10.23-6.19,18.13-12.1,34.37-27.85,53.66-38.42,3.49-1.91,10.4-5.39,14.25-4.35.81.22.41,1.44.49,1.51-2.26,2.06-4.94,3.57-7.49,5.24-8.18.76-12.81,5.54-19.19,9.62-6.07,3.88-12.76,7.62-18.64,12.07-8.56,6.47-20.42,18.99-30.27,22.82-3.76,1.46-7.49,2.02-11.4.9-1.99-.57-10.24-5.21-12.18-6.52-4.34-2.94-8.58-8.05-12.73-11.22-23.25-17.78-47.11-34.72-70.35-52.34-17.94-13.61-34.8-27.68-54.39-39.18-3.17-1.86-2.8-1.11-5.13-1.23-3.95-.2-7.83-5.34-10.48-7.48Z"/>
    <path class="cls-7" d="M746.84,461.77c-2.27,1.31-5.81,4.27-8.23,5.98l-2.22.03-.03,1.47c-.83.6-1.64,1.06-2.25,1.5-2.26.45-5.97,1.86-7.89,2.96-4.11,2.36-16.97,13.6-19.07,17.59-9.83,18.7,8.58,38.21,27.92,34.63,12.62-2.33,40.53-21.46,44.54-34.03,1.31-4.09,1.1-6.42.41-10.58-.22-1.34.28-2.79-1.73-2.34.19-1.14-.15-2.56,0-3.74.02-.15,1.46-1.65.75-2.99h-1.49c-.09-.7.17-1.71,0-2.25,1.92-2.62,5.82,4.42,6.17,5.43,4.02,11.82-.77,22.4-8.67,30.96-6.84,7.39-30.64,22.35-40.53,23.46-24.73,2.76-45.99-22.52-28.47-44.16,6.97-8.61,24.21-20.98,34.66-23.71,1.38-.36,4.97-1.27,6.16-.21Z"/>
    <path class="cls-3" d="M603.87,550.04c.13,1.26-.7,2.46-1.49,3.36-5.44,6.23-13.7,13.06-20.73,17.43-5.4,3.36-8.51,5.14-14.72,1.53-6.37-3.71-11.48-10.11-16.54-14.89-2.51-2.37-7.86-5.79-9.82-8.14-.84-1.01-1.32-1.61-1.07-3.04l16.47,9.34c14.3,6.5,28.73,4.38,42.43-2.46,1.84-.92,3.11-3.22,5.46-3.14Z"/>
    <path class="cls-3" d="M597.14,642.79c.26,1.31-.67,1.85-1.48,2.63-3.26,3.14-7.77,7.99-11.27,10.43-1.63,1.13-9.35,5.33-11.01,5.48-4.03.38-11.98-6.83-14.4-9.97-.53-.69-4.04-5.2-1.29-4.71,2.96.54,6.2,1.82,9.14,2.1,6.7.64,16.73-.88,23.16-3.02,2.45-.82,4.33-3.2,7.14-2.95Z"/>
    <path class="cls-4" d="M846.4,514.13c11.55,5.27,18.91,11.17,28.75,19.18,1.21.99,3.03.2,2.69,4.01-10.4-5.24-19.92-14.01-29.58-20.96-.9-.65-2.24-.53-1.85-2.22Z"/>
    <path class="cls-5" d="M430.22,425.87c-2.53,6.45-1.86,13.14.75,19.45h-1.5c-.77-5.84-4.79-11.84-.75-17.95.15-.12-.64-2.11,1.5-1.5Z"/>
    <path class="cls-4" d="M834.42,505.15c1.54.7,1.31,1.02,2.11,1.44,1.31.68,4.36.77,4.62,3.8-2.08-1.24-6.53-2.71-6.74-5.24Z"/>
    <path class="cls-5" d="M663.01,529.09v-1.49s4.77-.02,4.77-.02l.47,1.51c-1.74.06-3.5-.02-5.24,0Z"/>
    <path class="cls-5" d="M385.31,547.04l.47-1.51,4.03.02v1.49c-1.44-.06-3.07-.1-4.5,0Z"/>
    <path class="cls-5" d="M661.51,529.09c-.88.94-2.51,1.42-3.74,1.5-.46-2.79,2.68-1.48,3.74-1.5Z"/>
    <path class="cls-5" d="M395.79,547.79c1.53.3,3.46.39,2.99,2.24-1.39-.03-3.55-.62-2.99-2.24Z"/>
    <path class="cls-4" d="M385.31,458.78c-.15,0-1.98.59-2.99.75v-1.49s2.99.75,2.99.75Z"/>
    <path class="cls-7" d="M398.78,460.27c1.52.43,3.45.26,2.99,2.24-1.29-.63-3.5-.02-2.99-2.24Z"/>
    <path class="cls-4" d="M844.9,513.38c-1.49-.01-2.33-.74-2.25-2.24,2.81,1.52,1.63,1.65,2.25,2.24Z"/>
    <path class="cls-7" d="M674.24,529.84v-1.49s1.49,0,1.49,0v2.25c-.37-.2-1.17-.62-1.49-.75Z"/>
    <path class="cls-4" d="M392.04,458.78l.38-.74h1.86s0,1.49,0,1.49c-1.06-.15-2.13-.74-2.25-.75Z"/>
    <path class="cls-5" d="M391.3,547.04l.38-.74h1.86s0,1.49,0,1.49c-1.02-.17-2.13-.74-2.25-.75Z"/>
    <path class="cls-7" d="M397.28,460.27c-.68-.17-1.31-.71-1.5-.75l1.49-1.5v2.24Z"/>
    <path class="cls-5" d="M383.81,547.04c-.13.02-.84.59-1.5.75v-1.49s1.12,0,1.12,0l.38.74Z"/>
    <path class="cls-5" d="M685.46,540.31v1.5l-1.47-.03c-.18-.46.1-1.16-.02-1.47.49.04,1.01-.05,1.5,0Z"/>
    <path class="cls-4" d="M878.58,538.07c2.39,1.21.86.89,1.5,1.5-1.35.22-1.77-.13-1.5-1.5Z"/>
    <path class="cls-5" d="M670.49,529.09c.08,0,.68-1.05,1.49-.74v1.49s-1.49-.75-1.49-.75Z"/>
    <path class="cls-5" d="M369.59,470.75l-.05,1.45-1.45.05c.17-.21-.19-1.3,0-1.49s1.28.17,1.5,0Z"/>
    <path class="cls-4" d="M718.4,441.57c2.25-.57,1.67,2.24,1.51,3.37-1.33,9.45-11.3,15.09-17.94,20.24-27.39,21.22-55.19,41.69-83.53,61.64-10.58,7.45-21.89,16.67-33.84,21.53-13.84,5.63-28.64-2.86-39.97-10.56-29.07-19.74-57.14-41.96-85.27-62.89-8.01-5.96-28.86-17.28-30.54-27.94-.17-1.1.65-1.56.64-1.65h1.5c.16.39.53,1.09.75,1.5,1.44,2.66,1.25,1.34,2.25,2.24.37.34-.61.2,1.5,1.5.36.22.89.36,1.5.75.62,4.14,6,6.89,9.03,9.32,7.1,5.7,15.09,11.47,22.61,17.08,24.6,18.37,50.91,35.61,75.02,53.61,6.18,4.61,11.74,8.86,19.1,11.24,1.4.45,3.23,1.19,4.49,1.5v1.49c1.39.73,3.55-.73,3.74-.75.49-.04,1,.03,1.5,0v1.49s2.58.01,2.58.01l.41-1.51c.5-.03,1,.01,1.5,0,9.84-.25,25.27-11.77,33.63-17.63,28.25-19.82,54.46-40.65,82.03-60.9,3.69-2.71,10.79-5.46,13.86-9.34.93-1.18,1.16-2.72,1.48-4.14,3.27-2.49,9.02-7.42,10.48-11.22Z"/>
    <path class="cls-7" d="M683.97,419.88c-6.1,4.14-11.6,10.13-18.71,13.46-1.09.51-2.38.04-2.25,2.24-.49.26-1,.49-1.5.75-2.49,1.32-2.37,1.64-3.74,2.99-.25.25-.5.5-.75.75-.3-1.09-2.26-.99-3.05-.43l-.69,3.42c-.73.51-1.53.96-2.25,1.5l-.38-.74h-1.11s0,1.49,0,1.49c-1.3.92-2.51,1.99-3.74,2.99l-.39-.73-1.85-.02-.76,2.99c-.24.05-.51-.06-.75,0-7.74,1.82-8.82,3.8-14.6,8.23-3.71,2.85-9.7,5.99-10.85,10.47-.42.18-.92.5-1.5.75-.37.16-1.54-.17-2.41.18-2.4.97-5.94,2.76-5.07,5.8-.75.54-1.55.99-2.25,1.5-.81-1.7-1.03-1.85-2.64-.77-2.52,1.68-5.25,4.44-7.92,6.3-2.32,1.61-8.38,2.93-7.41,7.19-.25.02-.5-.03-.75,0-5.07.61-3.73,1.97-6.53,2.82-4.94,1.51-9.78.38-14.22-1.87-10.19-5.17-18.95-14.16-27.91-20.74-15.35-11.27-34.41-27-51.64-33.32-1.36-.5-1.81-.77-2.99-1.5.08-.47-.12-1.11,0-1.5.08-.27.95-.34.43-1.43-.91-1.87-6.35-5.8-8.66-3.81-.43-.28-1.64-.22-2.49-.84-4.26-3.11-8.65-6.16-12.48-9.63,10.9,1.63,11.06.33,21.19,6.87,17.75,11.45,34.9,23.81,51.81,36.49,10.05,7.54,23.96,20.68,34.85,25.76,10.17,4.74,14.41-2.18,21.69-7.36,20.4-14.53,40.17-29.83,60.64-44.12,6.18-4.31,13.61-10.03,19.91-13.77,3.24-1.93,11.43-7.09,13.72-2.37Z"/>
    <path class="cls-4" d="M486.36,437.09c17.23,6.32,36.29,22.05,51.64,33.32,8.96,6.58,17.72,15.58,27.91,20.74,4.45,2.25,9.29,3.38,14.22,1.87,2.8-.85,1.46-2.22,6.53-2.82-2.27,3.5-6.46,5.19-9.73,7.48-1.43-.24-1.75.06-1.5,1.5-.82.49-1.57,1.44-2.62,1.48-1.44.05-1.8-.96-2.62-1.48l-.03-1.47-1.47-.02c-2.22-1.53-4.51-2.88-6.74-4.49.25-1.44-.06-1.74-1.5-1.5-23.37-16.85-47.21-33.24-70.3-50.55-1.17-.88-3.84-2.47-3.81-4.05Z"/>
    <path class="cls-5" d="M707.92,452.79c-.32,1.41-.54,2.96-1.48,4.14-3.06,3.88-10.17,6.63-13.86,9.34-27.57,20.25-53.78,41.08-82.03,60.9-8.36,5.86-23.79,17.38-33.63,17.63,6.57-2.18,11.82-6.03,17.45-9.86,37.33-25.42,77.65-54.82,113.54-82.14Z"/>
    <path class="cls-5" d="M436.96,451.3c33.35,21.15,63.61,47.38,96.5,69.25l29.26,22c-7.36-2.38-12.92-6.62-19.1-11.24-24.11-18-50.41-35.24-75.02-53.61-7.52-5.61-15.51-11.38-22.61-17.08-3.03-2.43-8.41-5.18-9.03-9.32Z"/>
    <path class="cls-4" d="M642.05,450.55c.38,1.69-.95,1.57-1.85,2.22-6.42,4.61-16.94,13.63-23.6,16.48,1.15-4.48,7.14-7.63,10.85-10.47,5.78-4.43,6.86-6.41,14.6-8.23Z"/>
    <path class="cls-4" d="M605.37,477.48c-3.6,2.61-14.42,12.39-17.96,12.72-.98-4.26,5.09-5.58,7.41-7.19,2.67-1.86,5.4-4.62,7.92-6.3,1.61-1.08,1.83-.93,2.64.77Z"/>
    <path class="cls-4" d="M483.36,434.09h-1.5c-1.53-1.01-2.98-1.92-4.49-2.99v-1.49s-1.5,0-1.5,0c-.33-.24-.56-.63-.75-.75,2.31-2,7.75,1.93,8.66,3.81.53,1.09-.34,1.16-.43,1.43Z"/>
    <path class="cls-4" d="M615.1,470c-.74,2.89-5.3,4.42-7.49,5.98-.87-3.04,2.67-4.83,5.07-5.8.87-.35,2.04-.02,2.41-.18Z"/>
    <path class="cls-4" d="M657.02,440.08c-1.66,1.68-1.93,1.72-3.74,2.99l.69-3.42c.79-.56,2.75-.66,3.05.43Z"/>
    <path class="cls-4" d="M645.79,448.31c-1.08.88-.5,1.77-2.99,2.24l.76-2.99,1.85.02.39.73Z"/>
    <path class="cls-5" d="M570.94,544.8c-.2.02-2.35,1.48-3.75.75v-1.49c1.04.25,2.69-.5,3.75.75Z"/>
    <path class="cls-5" d="M575.43,544.8l-.41,1.51h-2.58s0-1.51,0-1.51c.99-.05,2,.06,2.99,0Z"/>
    <path class="cls-4" d="M665.25,433.35c.17,2.21-1.25,1.73-2.25,2.24-.13-2.21,1.16-1.73,2.25-2.24Z"/>
    <path class="cls-5" d="M433.96,449.05c.17.17,2.05-.42,1.5,1.5-2.1-1.29-1.13-1.16-1.5-1.5-1-.91-.8.42-2.25-2.24,2.11-.4,1.87,1.86,2.25,2.24Z"/>
    <path class="cls-4" d="M661.51,436.34c.36,1.86-2.21,2.48-3.74,2.99,1.37-1.36,1.25-1.67,3.74-2.99Z"/>
    <path class="cls-5" d="M475.88,429.61h1.5s0,1.5,0,1.5c-1.56-1.11-1.39-1.42-1.5-1.5Z"/>
    <path class="cls-5" d="M576.93,497.67c-.12.08.66.21-1.5,1.5-.25-1.44.06-1.74,1.5-1.5Z"/>
    <path class="cls-5" d="M568.7,497.67l1.47.02.03,1.47c-2-1.26-1.38-1.42-1.5-1.5Z"/>
    <path class="cls-5" d="M483.36,434.09c-.12.39.08,1.03,0,1.5-1.96-1.2-1.38-1.42-1.5-1.5h1.5Z"/>
    <path class="cls-5" d="M560.46,491.69c1.43-.24,1.75.06,1.5,1.5-1.64-1.19-1.38-1.41-1.5-1.5Z"/>
    <path class="cls-4" d="M651.03,444.57c-.66.5-1.25.57-1.5.75v-1.49s1.12,0,1.12,0l.38.74Z"/>
    <path class="cls-7" d="M490.1,383.98c-.47,3.04-.75,5.87-.75,8.98-1.7.24-2.4-1.01-2.99,1.13-4.56,16.6,9.99,22.75,19.98,30.52,8.66,6.73,15.05,11.19,24.1,17.43,20.51,14.15,34.26,31.39,60.48,17.64,14.93-7.83,29.46-20.12,43.27-30.06,8.42-6.06,19.79-10.64,23.95-20.95,1.44-3.57,2.9-8.47,1.68-12.16-.29-.88-1.27-1.21-1.3-1.3-.23-.75-.6-1.7-.75-2.24-.77-2.76-.67-6.27-1.5-8.98,5.74.57,8.08,10.56,8.26,15.31.44,11.75-6.85,18.6-15.37,25.09-8.76,6.67-18.47,12.6-27.58,18.82-15.17,10.35-36.04,28.84-55.46,24.52-13.49-3-41.24-23.72-53.5-32.56-11.94-8.6-28.71-18.57-31.32-33.77-.94-5.48,1.35-13.65,6.12-16.72,1.03-.66,2.32-.48,2.68-.69Z"/>
    <path class="cls-4" d="M489.35,392.95c0,3.07,0,5.98.75,8.98.39,1.53.31,3.45,2.25,2.99.33.5,1.7.88,1.5,2.24-.63,3.81.72,5.22,3.39,7.46,12.53,10.52,28.13,19.92,41.91,29.21,4.73,3.19,9.41,7.62,14.68,10.73,4.07,2.39,16.88,8.31,21.1,7.19.57-.15.53-2.68,4.24-.73v-2.25c.87.25,1.56.82,2.55.73,7.07-.63,26.9-15.42,33.78-20.16,2.67-1.84,5.7-3.66,8.54-5.68,4.38-3.12,28.46-20.54,29.64-23.53.5-1.27-.54-2.25-.45-3.25.03-.26.97-.17,1.54-1.97.07-.23-.07-.52,0-.75,2.19.5,2.86-4.24,2.99-5.98.07-.93.07-2.06,0-2.99h.75c.03.09,1.01.42,1.3,1.3,1.23,3.69-.24,8.59-1.68,12.16-4.15,10.31-15.53,14.89-23.95,20.95-13.81,9.94-28.34,22.23-43.27,30.06-26.21,13.75-39.96-3.49-60.48-17.64-9.05-6.24-15.44-10.69-24.1-17.43-9.99-7.77-24.54-13.92-19.98-30.52.59-2.14,1.29-.88,2.99-1.13Z"/>
    <path class="cls-5" d="M654.78,404.92c-.57,1.8-1.51,1.7-1.54,1.97-.1,1,.95,1.98.45,3.25-1.18,2.99-25.26,20.41-29.64,23.53-2.83,2.02-5.87,3.84-8.54,5.68-6.87,4.73-26.71,19.52-33.78,20.16-.99.09-1.68-.48-2.54-.73v2.25c-3.72-1.95-3.68.58-4.25.73-4.23,1.11-17.04-4.8-21.1-7.19-5.27-3.1-9.95-7.54-14.68-10.73-13.78-9.29-29.38-18.7-41.91-29.21-2.67-2.24-4.02-3.65-3.39-7.46,22.14,13.89,44.16,34.36,66.68,47.44,14.48,8.41,19.75,3.37,31.92-4.64l62.34-45.05Z"/>
    <path class="cls-4" d="M368.09,562.75c-1.37,9.48,1.34,16.66,9.73,21.69-.06,2.15.99,1.78,2.25,2.24.23.08.55-.09.75,0,.99,4.48,1.96,3.03,4.49,3.74.23.06.52-.06.75,0,.15,6.14,7.97,9.26,11.92,12.39,20.75,16.46,41.82,31.74,62.86,47.15,29.53,21.64,59.77,44.39,89.84,65.05,5.48,3.77,6.56,7.58,14.28,7.8.5.01,1,.01,1.5,0v1.49c1.39.71,2.84-.73,2.99-.75.49-.04,1,.04,1.5,0v1.49c2.78.32,5.45-.49,8.18-.81l.05-1.43c.49-.04,1,0,1.5,0,.69-.01,1.86.86,2.56.65.84-.24.89-1.62,1.38-1.94,1.05-.7,4.17-.59,6.08-1.8,20.83-13.27,41.82-30.59,61.81-45.19,13.16-9.61,34.03-22.81,44.37-33.78,1.96-2.08,7.41-4.92,9.82-6.31,6.55-3.77,16.33-13.81,23-18.91,9.1-6.97,25.53-15.89,30.63-25.12.19-.34.45-.52.75-.75.19-.14,1.06.12,1.5,0v-1.49c5.66-3.17,7.87-5.94,11.98-10.47.08-.09,1.29.2,1.56-.49.37-.79.51-1.66.69-2.5.14-.65-.1-1.54,0-2.24,2.14.64,2.19-3.44,2.25-5.24,2.22-.42,1.49,1.16,1.51,2.59.07,5.18-1.18,10.42-3.89,14.85-3.57,5.83-18.85,17.41-24.97,22.17-41.53,32.32-83.93,64-126.78,94.72-11.7,8.39-30.45,23.38-44.22,26.87-15.9,4.02-25.26-4.64-36.94-12.82-18.12-12.68-35.78-25.19-53.7-37.98-33.39-23.83-68.93-48.56-100.59-74.51-10.17-8.34-24.17-19.25-25.15-33.27-.19-2.69.25-7.36,3.8-7.1Z"/>
    <path class="cls-4" d="M412.25,559.01c6.95,2.89,6.44,2.23,12.51,6.73,8.64,6.4,18.59,12.19,27.42,18.82,22.9,17.19,46.5,33.92,69.73,51.5,4.24,3.21,8.73,6.47,13.02,9.39,7.92,5.4,27.11,22.11,34.46,23.94,5.69,1.41,8.09,1.09,12.95-1.95,13.21-8.26,27.11-20.25,39.99-29.77,11.93-8.82,24.64-17.25,36.51-26.35.77-.59,1.16-2.29,2.25-2.99,1.13-.72,2.69-.54,3.43-1.08.84-.62.41-2.05,1.22-2.68.7-.55,3.23-.91,4.71-1.85,7.07-4.48,14.76-10.45,21.95-15.27.7-.47,2.77-3.46,2.99-3.55,1.98-.78,3.75-.44,6.55-1.71.17-.42-.07-1.3.39-2.2,1.23-2.45,3.67-1.85,5.29-3,2.92-2.07,3.01-2.56,7.05-4.52.11,1.69-1.16,1.93-2.14,2.73-3.44,2.81-6.6,5.2-10.59,7-.11.27.22.93-.16,1.32-38.14,27.96-75.56,57.12-114.36,83.96-1.43-.24-1.75.06-1.5,1.5-2.74,1.9-4.33,3.49-7.49,5.24-1.32.73-3.84.32-3.74,2.99-.21.05-.49-.02-.75,0-.5.03-1-.02-1.5,0-.65-.5-2.49-1.34-3.74-2.24.25-1.43-.07-1.74-1.5-1.5-.24-.24-1.07-.54-1.5-.75.25-1.44-.07-1.74-1.5-1.5-4.18-3-8.53-5.86-12.72-8.98.25-1.44-.06-1.74-1.5-1.5-1.28-.96-3.06-1.98-4.49-2.99.25-1.43-.07-1.74-1.5-1.5-.23-.23-1.07-.54-1.5-.75.25-1.44-.07-1.74-1.5-1.5-42.55-29.91-85.66-61.07-126.94-92.72-.89-.68-2.17-.67-1.8-2.27Z"/>
    <path class="cls-5" d="M386.06,590.43l141.71,104.11,37.19,28.29c-7.72-.22-8.79-4.03-14.28-7.8-30.07-20.66-60.3-43.41-89.84-65.05-21.04-15.42-42.11-30.69-62.86-47.15-3.95-3.13-11.78-6.25-11.92-12.39Z"/>
    <path class="cls-5" d="M760.32,590.43c-5.1,9.23-21.53,18.15-30.63,25.12-6.66,5.1-16.45,15.15-23,18.91-2.41,1.39-7.86,4.23-9.82,6.31-10.35,10.97-31.21,24.17-44.37,33.78-20,14.6-40.99,31.92-61.81,45.19-1.9,1.21-5.02,1.1-6.08,1.8-.49.32-.54,1.7-1.38,1.94-.7.2-1.87-.66-2.56-.65l179.65-132.4Z"/>
    <path class="cls-5" d="M776.78,559.76c2.65-.37,2.31,5.48,2.25,7.48-.06,1.8-.1,5.87-2.25,5.24.76-5.29,1-7.35,0-12.72Z"/>
    <path class="cls-5" d="M579.17,722.83l-.05,1.43c-2.73.32-5.4,1.13-8.19.81v-1.49c2.75-.22,5.52-.55,8.24-.75Z"/>
    <path class="cls-5" d="M380.82,586.69c1.6.75,4.73,1.78,4.49,3.74-2.53-.71-3.51.74-4.49-3.74Z"/>
    <path class="cls-4" d="M725.88,564.25c-.04,2.49-2.79,2.87-4.49,3.74.05-2.48,2.78-2.89,4.49-3.74Z"/>
    <path class="cls-5" d="M578.43,674.2c.39,1.75-2.24,2.61-3.74,2.99-.1-2.67,2.43-2.27,3.74-2.99Z"/>
    <path class="cls-4" d="M719.9,568.74c.38,2.04-2.29,2.28-3.74,2.99-.05-2.62,2.27-2.28,3.74-2.99Z"/>
    <path class="cls-5" d="M776.78,574.72c-.18.85-.32,1.71-.69,2.5-.27.69-1.47.4-1.56.49.4-1.53.29-3.45,2.25-2.99Z"/>
    <path class="cls-5" d="M569.44,723.57c-.15.01-1.6,1.45-2.99.75v-1.49c1.13-.03,2.11-.15,2.99.75Z"/>
    <path class="cls-5" d="M380.07,586.69c-1.25-.46-2.31-.09-2.25-2.24.84.5,2.46,0,2.25,2.24Z"/>
    <path class="cls-4" d="M728.88,562c.43,2.14-.88,1.21-1.5,1.5-.43-2.24.87-1.2,1.5-1.5Z"/>
    <path class="cls-5" d="M762.56,588.18v1.49c-.44.12-1.31-.14-1.5,0-.38-2.06,1.02-1.23,1.5-1.5Z"/>
    <path class="cls-5" d="M541,654.01c1.43-.24,1.75.06,1.5,1.5-2.44-1.21-1.38-1.41-1.5-1.5Z"/>
    <path class="cls-5" d="M543.99,656.25c1.43-.24,1.75.06,1.5,1.5-1.94-1.37-.92-.9-1.5-1.5Z"/>
    <path class="cls-5" d="M549.98,660.74c1.43-.24,1.75.06,1.5,1.5-1.51-1.12-1.39-1.41-1.5-1.5Z"/>
    <path class="cls-5" d="M587.41,667.47c-.11.08.23.3-1.5,1.5-.25-1.44.07-1.74,1.5-1.5Z"/>
    <path class="cls-5" d="M564.2,671.21c1.43-.24,1.75.06,1.5,1.5-2.44-1.21-1.38-1.41-1.5-1.5Z"/>
    <path class="cls-5" d="M567.2,673.46c1.43-.24,1.75.06,1.5,1.5-1.87-1.34-.98-.97-1.5-1.5Z"/>
    <path class="cls-5" d="M573.93,677.2v1.49c-2.04.87-1.3-1.34-1.5-1.49.5-.02,1,.03,1.5,0Z"/>
    <path class="cls-4" d="M368.09,482.71c.75,1.03.66,2.5,2.25,2.24.44,1.49.94,3.04,1.5,4.49,3.87,10.11,7.79,10.37,15.34,16.46,20.72,16.68,42.13,32.45,63.5,48.37,12.76,9.51,25.63,19.5,38.44,28.92,7.64,5.62,16.94,11.19,22.87,17.52.81.86,3.98,1.43,5.44,2.42,9.61,6.49,18.52,14.93,27.74,21.65,6.85,5,9.7,7.27,18.29,9.02.66.13,1.54-.11,2.25,0,.75,3.83,7.77,2.89,10.38,2.48,1.34-.21,2.78.28,2.34-1.73.73-.07,1.54.1,2.25,0,3.69-.54,8.11-1.27,11.22-3.39,9.69-6.61,19.54-14.23,29.37-21.29,15.02-10.77,30.81-21.36,45.23-32.43,5.67-4.35,11.74-9.14,15.23-16.19.7-.43,1.85-.03,2.6-1.51.3-1.66.97-3.61,1.14-5.22.1-.98-.06-2.01,0-2.99l1.5-.75c.12.71,1.55,1.27,1.38,3.17-.5,5.79-5.63,14.71-10.01,18.51-17.54,15.19-40.52,29.89-60.19,43.83-18.56,13.15-36.96,32.77-61.95,19.92-17.87-9.19-40.83-30.19-57.7-42.75-37.8-28.15-78.78-55.84-115.05-85.32-6-4.88-16.13-13.25-16.81-21.4-.29-3.52.66-2.6,1.44-4.01Z"/>
    <path class="cls-4" d="M414.5,470.75c2.33.12,1.96-.63,5.13,1.23,19.59,11.5,36.45,25.57,54.39,39.18,23.23,17.62,47.1,34.56,70.35,52.34,4.15,3.17,8.39,8.28,12.73,11.22,1.94,1.31,10.19,5.95,12.18,6.52,3.91,1.12,7.64.57,11.4-.9,9.85-3.84,21.71-16.35,30.27-22.82,5.88-4.45,12.57-8.2,18.64-12.07,6.39-4.08,11.01-8.85,19.19-9.62-1.5.98-2.59,2.03-4.49,2.99-.56.28-1.94-.65-1.5,1.5-1.26.79-7.87,4.9-8.23,5.24-1.52-.02-2.31.74-2.25,2.24-.43.28-1.24.48-1.5.75-1.43-.24-1.75.06-1.5,1.5-.42.21-1.28.52-1.5.75-1.43-.24-1.75.06-1.5,1.5-.23.09-.68-.11-.75,0h-1.5s0,1.5,0,1.5c-1.2.78-2.48,1.15-2.99,1.5-1.52-.02-2.31.74-2.25,2.24-.43.28-1.25.48-1.5.75-1.43-.24-1.75.06-1.5,1.5-.23.09-.68-.11-.75,0h-1.5s0,1.5,0,1.5c-.56.39-1.28.58-1.5.75l-1.46.03-.03,1.47c-1.34.95-2.89,1.63-3.74,2.24l-1.47.02-.03,1.47c-1.36.98-2.9,1.63-3.74,2.24l-1.47.02-.03,1.47c-.76.55-1.62,1.03-2.25,1.5-1.44-.24-1.75.05-1.5,1.5-1.13.81-2.88,1.38-2.99,1.5l-1.47.02-.02,1.48c-1.5,1.06-3.01,1.98-4.49,2.99l-1.47.02-.02,1.48c-.5.24-.99.52-1.5.75-1.54.69-3.78.41-3.74,2.99-.21.1-.68-.12-.75,0h-1.5s0,1.5,0,1.5c-.24,0-.51.03-.75,0-4.76-.54-11.43-2.41-15.72-4.49-.51-.25-1-.5-1.5-.75.06-1.5-.73-2.26-2.25-2.24-1.15-.76-2.26-1.16-3.74-2.24l-.03-1.47-1.47-.03c-.25-.19-.9-.31-1.5-.75.06-1.5-.73-2.26-2.25-2.24-.82-.61-2.37-1.23-3.74-2.24.25-1.43-.07-1.74-1.5-1.5-.37-.3-1.05-.45-1.5-.75.05-1.52-.75-2.31-2.25-2.24-.11-.13-.58.12-.75,0,.05-2.03-2.93-2.8-4.49-3.74-1.05-.64-1.33-.85-2.25-1.5l-.03-1.47-1.47-.02c-1.05-.71-2.29-1.19-3.74-2.24.25-1.43-.07-1.74-1.5-1.5-.24-.24-1.07-.54-1.5-.75l-.03-1.47-1.47-.03c-.3-.2-.89-.33-1.5-.75.16-1.79-2.92-2.95-4.49-3.74-.15-.19-.46-.35-.75-.75-.11-.15.25-.86-.49-1.54-.85-.78-2.26-.98-3.25-1.45-.5-.24-1.02-.54-1.5-.75.53-2.18-1.73-1.64-2.99-2.24-1.37-.66-1.64-1.15-2.25-1.5.2-2.78-2.14-1.82-2.99-2.24-2.69-1.35-3.8-3-5.99-4.49l-.03-1.47-1.47-.03c-.25-.18-.9-.33-1.5-.75-.1-2.38-2.69-3-4.49-3.74-.21-.09-.53.08-.75,0,.07-1.5-.75-2.24-2.25-2.24-.91-.71-2.46-1.31-3.74-2.24l-.02-1.48-1.48-.02c-.59-.43-1.34-.83-2.25-1.5v-1.49s-2.25,0-2.25,0c-1-.74-2-1.51-2.99-2.24.25-1.43-.07-1.74-1.5-1.5-.37-.3-1.05-.45-1.5-.75.05-1.52-.75-2.31-2.25-2.24-.11-.13-.58.12-.75,0,.44-1.48-3.04-2.97-4.49-3.74-1.43.31-1.86-1.28-2.25-1.5.07-2.64-2.33-2.27-3.74-2.99-1.4-.71-1.4-.93-2.25-1.5l-.03-1.47-1.47-.02c-1.08-.73-2.27-1.17-3.74-2.24l-.03-1.47-1.47-.03c-.25-.19-.9-.31-1.5-.75.06-1.51-.73-2.25-2.25-2.24-.3-.21-.91-.33-1.5-.75.4-1.55-2.47-2.26-3.74-2.99-.9-.52-1.5-1.02-2.25-1.5-.18-2.87-3.27-3.42-5.24-4.49-1.72-.93-2.17-1.21-3.74-2.24l-.02-1.48-1.48-.02c-.88-.63-2.5-1.34-3.74-2.24.25-1.44-.06-1.74-1.5-1.5-.64-.48-1.45-.89-2.25-1.5l-.03-1.47-1.46-.03c-.22-.17-.94-.36-1.5-.75v-1.49s-1.5,0-1.5,0v-.75Z"/>
    <path class="cls-5" d="M371.83,489.45l191.62,144.37c-8.59-1.76-11.44-4.02-18.29-9.02-9.21-6.73-18.13-15.17-27.74-21.65-1.46-.99-4.63-1.56-5.44-2.42-5.93-6.33-15.24-11.9-22.87-17.52-12.81-9.42-25.68-19.41-38.44-28.92-21.37-15.92-42.78-31.7-63.5-48.37-7.56-6.08-11.48-6.35-15.34-16.46Z"/>
    <path class="cls-5" d="M685.46,554.52c-.17,1.62-.84,3.56-1.14,5.22-.75,1.48-1.9,1.08-2.6,1.51-3.49,7.05-9.56,11.85-15.23,16.19-14.42,11.07-30.21,21.66-45.23,32.43-9.84,7.05-19.68,14.68-29.37,21.29-3.11,2.12-7.53,2.85-11.22,3.39l93.5-67.76c2.24-2.3,4.97-3.97,7.55-5.55.98-1.98,1.67-7.07,3.74-6.73Z"/>
    <path class="cls-5" d="M577.68,586.69c-.32,2.47-4.09,4.24-6.19,3.6-1.01-.3-6.31-4.73-7.72-5.82-.89-.68-2.17-.67-1.8-2.27,4.29,2.07,10.96,3.95,15.72,4.49Z"/>
    <path class="cls-5" d="M578.43,634.56c.44,2-1,1.52-2.34,1.73-2.61.41-9.64,1.35-10.38-2.48,6,.93,6.28,1.35,12.72.75Z"/>
    <path class="cls-5" d="M436.96,488.7c-1.74-1.09-5.1-1.92-5.24-4.49,1.96,1.07,5.06,1.62,5.24,4.49Z"/>
    <path class="cls-5" d="M685.46,545.55h1.5c.2,1.64-.27,3.68,0,5.24l-1.5.75c.12-1.97,0-4.01,0-5.98Z"/>
    <path class="cls-5" d="M493.84,531.34c-1.34-.94-4.57-1.1-4.49-3.74,1.8.74,4.4,1.36,4.49,3.74Z"/>
    <path class="cls-5" d="M584.41,582.2c.39,2.06-2.33,2.29-3.74,2.99-.03-2.59,2.2-2.3,3.74-2.99Z"/>
    <path class="cls-5" d="M512.56,544.8c.99.47,2.4.67,3.25,1.45.74.68.38,1.39.49,1.54-1.81-.27-3.76-.89-3.74-2.99Z"/>
    <path class="cls-5" d="M370.34,484.96c-1.59.25-1.49-1.21-2.25-2.24.22-.4-.24-1.78.75-2.24.22,1.01,1.1,3.12,1.5,4.49Z"/>
    <path class="cls-5" d="M460.91,506.65c-1.34-.77-4.14-.86-3.74-2.99,1.42.72,3.81.35,3.74,2.99Z"/>
    <path class="cls-5" d="M517.05,548.54c1.57.79,4.65,1.95,4.49,3.74-2.74-1.92-2.36-1.09-4.49-3.74Z"/>
    <path class="cls-5" d="M535.01,562c1.56.94,4.54,1.71,4.49,3.74-1.29-.88-4.86-1.61-4.49-3.74Z"/>
    <path class="cls-5" d="M508.06,541.81c1.26.61,3.52.06,2.99,2.24-1.23-.54-3.3-.11-2.99-2.24Z"/>
    <path class="cls-5" d="M505.82,540.31c-1.02-.58-2.51-.43-2.99-2.24.85.43,3.19-.54,2.99,2.24Z"/>
    <path class="cls-5" d="M470.64,514.13c-2.39-1.58-1.29-1.19-2.25-2.24,1.49-.07,2.3.73,2.25,2.24Z"/>
    <path class="cls-5" d="M560.46,581.45c-2.73-1.35-2.1-2.15-2.25-2.24,1.51-.02,2.31.74,2.25,2.24Z"/>
    <path class="cls-5" d="M551.48,574.72c-1.71-1.25-2.1-2.14-2.25-2.24,1.51-.02,2.31.74,2.25,2.24Z"/>
    <path class="cls-5" d="M542.5,567.99c-2.38-1.57-1.24-1.11-2.25-2.24,1.49-.06,2.3.72,2.25,2.24Z"/>
    <path class="cls-5" d="M488.6,527.6c-3.02-1.1-1.92-1.99-2.25-2.24,1.5,0,2.32.74,2.25,2.24Z"/>
    <path class="cls-5" d="M446.69,496.18c-1.69-1.24-2.1-2.14-2.25-2.24,1.51-.01,2.31.74,2.25,2.24Z"/>
    <path class="cls-5" d="M634.57,545.55c-.63.59.1.68-2.25,2.24-.06-1.5.73-2.27,2.25-2.24Z"/>
    <path class="cls-5" d="M621.09,555.27c-.15.1-.19.88-2.25,2.24-.06-1.5.73-2.27,2.25-2.24Z"/>
    <path class="cls-5" d="M476.63,518.62h2.25s0,1.5,0,1.5c-.57-.42-1.37-.85-2.25-1.5Z"/>
    <path class="cls-5" d="M439.2,490.19c1.27.73,4.15,1.44,3.74,2.99-1.12-.81-4.23-.8-3.74-2.99Z"/>
    <path class="cls-5" d="M630.82,548.54c-.67.7,1.07.23-1.5,1.5-.25-1.43.07-1.74,1.5-1.5Z"/>
    <path class="cls-5" d="M627.83,550.78c-.66.69,1.26.46-1.5,1.5-.25-1.43.07-1.74,1.5-1.5Z"/>
    <path class="cls-5" d="M625.58,552.28c-.12.2.26,1.15-.12,1.38-.53.31-1.22.02-1.38.12v-1.49s1.5,0,1.5,0Z"/>
    <path class="cls-5" d="M523.04,553.03l1.47.03.03,1.47c-2.43-1.21-1.38-1.42-1.5-1.5Z"/>
    <path class="cls-5" d="M644.3,538.82c.49,2.23-1.06,1.22-1.5,1.5-.44-2.15.93-1.21,1.5-1.5Z"/>
    <path class="cls-5" d="M526.03,555.27c1.43-.24,1.75.06,1.5,1.5-1.81-1.33-.97-.97-1.5-1.5Z"/>
    <path class="cls-5" d="M495.34,532.08l1.47.03.03,1.47c-1.8-1.23-1.38-1.41-1.5-1.5Z"/>
    <path class="cls-5" d="M617.35,558.26c-.67.72,1.24.47-1.5,1.5-.25-1.43.07-1.74,1.5-1.5Z"/>
    <path class="cls-5" d="M531.27,559.01l1.47.02.03,1.47c-1.68-1.17-1.38-1.42-1.5-1.5Z"/>
    <path class="cls-5" d="M615.1,559.76c-.12.2.26,1.01-.12,1.38-.35.35-1.22,0-1.38.11v-1.49s1.5,0,1.5,0Z"/>
    <path class="cls-5" d="M612.11,562c-.11.09.21.28-1.5,1.5l.03-1.47,1.46-.03Z"/>
    <path class="cls-5" d="M606.87,565.74c-.11.08.11.34-1.5,1.5l.03-1.47,1.47-.02Z"/>
    <path class="cls-5" d="M472.14,514.88c1.43-.24,1.75.06,1.5,1.5-1.62-1.19-1.39-1.41-1.5-1.5Z"/>
    <path class="cls-5" d="M543.99,568.74c1.43-.24,1.75.06,1.5,1.5-1.59-1.18-1.39-1.41-1.5-1.5Z"/>
    <path class="cls-5" d="M463.15,508.15c1.46.77,4.93,2.26,4.49,3.74-1.45-.75-4.93-2.27-4.49-3.74Z"/>
    <path class="cls-5" d="M601.63,569.48c-.11.08.11.34-1.5,1.5l.03-1.47,1.47-.02Z"/>
    <path class="cls-5" d="M597.89,572.48c-.11.08.12.33-1.5,1.5-.25-1.44.06-1.74,1.5-1.5Z"/>
    <path class="cls-5" d="M481.12,521.61l1.48.02.02,1.48c-1.58-1.15-1.39-1.41-1.5-1.5Z"/>
    <path class="cls-5" d="M552.98,575.47l1.47.03.03,1.47c-1.57-1.15-1.39-1.41-1.5-1.5Z"/>
    <path class="cls-5" d="M593.4,575.47c-.5.49.43.14-1.5,1.5l.02-1.48,1.47-.02Z"/>
    <path class="cls-5" d="M587.41,579.96c-.12.08.96.31-1.5,1.5l.02-1.48,1.47-.02Z"/>
    <path class="cls-5" d="M579.92,585.19c-.51.88,1.12,1.46-1.5,1.5v-1.49s1.5,0,1.5,0Z"/>
    <path class="cls-5" d="M453.42,500.67l1.47.02.03,1.47c-1.84-1.22-1.38-1.42-1.5-1.5Z"/>
    <path class="cls-5" d="M448.18,496.93l1.47.03.03,1.47c-1.55-1.14-1.39-1.41-1.5-1.5Z"/>
    <path class="cls-5" d="M426.48,480.47l1.48.02.02,1.48c-1.88-1.23-1.39-1.42-1.5-1.5Z"/>
    <path class="cls-5" d="M421.24,476.73c1.44-.24,1.75.05,1.5,1.5-1.61-1.18-1.38-1.41-1.5-1.5Z"/>
    <path class="cls-5" d="M417.49,473.74l1.46.03.03,1.47c-1.44-1.09-1.39-1.41-1.5-1.5Z"/>
    <path class="cls-5" d="M414.5,471.49h1.5s0,1.5,0,1.5c-.17-.12-1.04.24-1.39-.11l-.11-1.39Z"/>
    <path class="cls-4" d="M344.89,518.62c2.69-.25,1.86-.19,2.36,1.72,1.5,5.78.99,10.46-1.47,15.99-3.92,8.82-28.41,23.08-26.75,30.92.09.4,3.35,6.96,3.63,7.25.49.48,2.3.69,3.34,1.52,5.27,4.21,9.84,6.8,14.43,10.99,7.5,6.84,19.53,14.6,27.93,19.99,3.8,2.44,6.2,5.96,9.19,9.18,2.99,3.22,7.26,5.78,10.76,9.03,3.2,2.97,2.83,5.83,3.9,6.95.58.6,2.12.45,2.65,1.08,2.55,3.03,4.06,16.08,3,20.22-3.58,13.88-22.37,19.12-34.67,14.06-39.41-23.81-75.95-53.13-111.86-81.95-5.81-7.35-9.15-17.47-4.5-26.22.55-1.03.72-2.16,2.25-1.83-1.71,7.55-.83,15.77,5.24,20.94-.08,1.62.74,3.06,1.76,4.23,9.03,10.36,23.95,18.76,34.87,26.86,20.74,15.38,40.38,31.84,62.09,45.69,2.27,1.45,5.94,5.06,8.6,6.33,1.87.89,13.96,3.28,15.66,2.77,1.28-.39,1.95-1.56,2.02-2.85.75-.01,1.5-.02,2.25,0s1.88.86,2.57.66c.87-.26.88-1.7,1.36-1.99.73-.45,2.02.09,2.66-.3s1.21-3.49,1.65-4.36c.53-1.03.68-1.36,1.5-2.24.7-.76,1.81.34,2.25-3.74,1.76-16.41-3.49-19.31-14.61-28.44-21.26-17.46-44.62-33.43-66.23-50.84.34-2.26-.51-1.2-1.5-1.5-.02-1.49.7-6.86,1.09-8.26,1.12-4.01,6.69-5.46,7.15-9.69.97-.7,2.02-1.51,2.99-2.24,3.41.48,2.76-.49,3.74-2.24.14-.26.59-.47.75-.75,1.38.27,1.73-.13,1.5-1.5,9.22-8.89,17.07-9.78,16.47-25.43Z"/>
    <path class="cls-5" d="M379.32,661.49c-.07,1.29-.74,2.46-2.02,2.85-1.7.51-13.79-1.88-15.66-2.77-2.66-1.26-6.33-4.88-8.6-6.33-21.71-13.85-41.36-30.31-62.09-45.69-10.92-8.1-25.84-16.5-34.87-26.86-1.02-1.17-1.84-2.61-1.76-4.23.19.16,1.2.19,1.86.73,34.06,27.59,72.09,51.86,106.73,78.87,7.04,3.96,8.76,3.58,16.41,3.43Z"/>
    <path class="cls-5" d="M319.44,550.78c-.45,4.23-6.02,5.68-7.15,9.69-.39,1.4-1.11,6.77-1.09,8.26.99.3,1.83-.77,1.5,1.5-1.7.21-1.48-.12-1.5-1.5-1.76-.53-8.7-4.45-8.23-6.33,5.32-4.08,11.04-7.71,16.47-11.62Z"/>
    <path class="cls-5" d="M389.8,655.5c-.44.87-1.02,3.97-1.65,4.36s-1.93-.15-2.66.3c-.48.29-.49,1.73-1.36,1.99-.68.2-1.84-.64-2.57-.66l8.23-5.98Z"/>
    <path class="cls-5" d="M326.17,546.3c-.98,1.75-.33,2.72-3.74,2.24.92-.68,1.31-2.87,3.74-2.24Z"/>
    <path class="cls-4" d="M344.89,516.38c-.04-.26-.61-2.48-.75-2.99l2.24,1.13-1.49,1.86Z"/>
    <path class="cls-5" d="M393.54,649.52c-.44,4.08-1.55,2.98-2.25,3.74l.86-3.65,1.39-.09Z"/>
    <path class="cls-5" d="M328.42,544.05c.23,1.37-.11,1.76-1.5,1.5,1.35-2.42.83-.85,1.5-1.5Z"/>
    <path class="cls-5" d="M892.06,578.46c.2,1.73.19,2.55-.8,4.06-2.43,3.68-8.68,7.21-11.86,9.85-22.57,18.73-46.58,35.35-70.8,52.67-11.21,8.02-24.22,22.91-39.3,19.82-4.31-.89-12.7-4.62-14.04-9.19-.35-1.18,0-2.34-.18-3.15,3.05,1.66,4.79,4.71,7.99,6.6,7.19,4.24,11.94,3.69,19.2,0,34.76-27.26,74.14-51.73,107.93-79.93.65-.55,1.69-.57,1.86-.73Z"/>
    <path class="cls-4" d="M897.3,573.97c-.01.12.85.74.64,2.38-.12.88-2.19,6.91-2.66,7.4-.61.63-2.53,1.28-3.58,2.22-22.86,20.47-50.32,39.01-75.18,57.27-9.37,6.88-25.45,21.71-36.54,24.07-10.18,2.17-22.88-1.04-27.68-10.9-2.44-5.01-4.11-12.47-1.85-17.84.63-1.5,1.53-.9,1.63-1.01l.75,2.99c-.09.72.1,1.53,0,2.24-.01.1-.79.13-.78,1.82,0,1.5.93,3.23.85,4.86l1.43.05c.13.76.53,2.03.75,2.99.19.81-.16,1.97.18,3.15,1.34,4.56,9.73,8.3,14.04,9.19,15.08,3.1,28.09-11.8,39.3-19.82,24.21-17.33,48.22-33.94,70.8-52.67,3.18-2.64,9.44-6.16,11.86-9.85.99-1.51,1-2.33.8-4.06.81-.72,3.24-3.56,3.74-4.49h1.5Z"/>
    <path class="cls-4" d="M802.23,526.85c.04.24-.04.5,0,.75.07.47-.08,1.01,0,1.49h1.5c1.26,3.03,2.83,5.21,5.24,7.48.02,1.52.73,2.27,2.25,2.24.21.17.93.32,1.5.75-.04,2.02,2.93,2.81,4.49,3.74,2.39,5.63,5.37,7.84,10.29,10.64.32.18,4.46,5.36,4.65,5.67,1.84,3.08,2.6,8.15.79,11.36-.41.3-1.24.47-1.5.75-1.43-.24-1.75.06-1.5,1.5-2.74,2.07-5.47,3.97-8.23,5.98h-1.5c-.06-.22-1.17-.47-.41-1.48.68-.91,3.76-3.02,4.64-4.02,4.28-4.82,7.76-9.55,1.8-15.11-8.03-7.5-24.42-16.77-25.54-29.11-.12-1.34-.55-3.11,1.55-2.64Z"/>
    <path class="cls-5" d="M812.71,539.56c2.08,1.58,3.17.62,4.49,3.74.61.36,1.79.4,2.95,1.15,7.83,5.08,15.5,12.55,23.25,17.95.55,2.21-8.84,7.36-10.48,8.58,1.81-3.21,1.05-8.27-.79-11.36-.19-.31-4.33-5.49-4.65-5.67-4.92-2.81-7.9-5.02-10.29-10.64-1.57-.93-4.54-1.72-4.49-3.74Z"/>
    <path class="cls-4" d="M813.46,585.19c.37,1.6-.92,1.59-1.8,2.27-10.23,7.88-23.93,19.69-34.87,25.4-.16.22-.02.97-.76,1.82-1.13,1.3-4.92,3.55-6.72,4.16,2.93-3.49,2.73-3.5,7.49-5.98,8.79-12.45,23.81-19.98,36.68-27.68Z"/>
    <path class="cls-4" d="M767.8,620.35c-2.12,2.02-4.3,3.07-5.99,4.49.06-3.32,3.05-4.22,5.99-4.49Z"/>
    <path class="cls-5" d="M754.33,649.52l-1.43-.05c.08-1.63-.84-3.35-.85-4.86,0-1.69.77-1.73.78-1.82,1.07,1.97,1.12,4.52,1.5,6.73Z"/>
    <path class="cls-5" d="M898.79,567.99c.04.74-.06,1.5,0,2.24-.68.33-.55.99-.75,1.5-.3.78-.66,1.31-.75,2.24h-1.5c.83-1.54,1.43-4.15,1.55-5.94l1.44-.04Z"/>
    <path class="cls-5" d="M753.58,636.06c.11,2.32-.57,3.09-.75,4.49l-.75-2.99c.21-.25-.43-2.01,1.5-1.5Z"/>
    <path class="cls-5" d="M811.22,538.82c-1.51.03-2.23-.73-2.25-2.24.66.63,2.11,2.13,2.25,2.24Z"/>
    <path class="cls-4" d="M754.33,633.06l-.75,2.24c-.02-.22-1.3-1.17-.72-2.23.42-.18,1.34.1,1.47-.02Z"/>
    <path class="cls-5" d="M802.23,527.6c2.23-.41,1.2.79,1.5,1.5h-1.5c-.08-.49.07-1.03,0-1.5Z"/>
    <path class="cls-4" d="M801.49,519.37c-.03.49,0,1,0,1.5l-1.5-.38v-1.11s1.5,0,1.5,0Z"/>
    <path class="cls-5" d="M831.43,571.73c-.76.82.28.16-1.5,1.5-.25-1.43.07-1.74,1.5-1.5Z"/>
    <path class="cls-5" d="M821.7,579.21c-.11.08.07.39-1.5,1.5-.07-.47.11-1.08,0-1.5h1.5Z"/>
    <path class="cls-4" d="M734.12,470.75c-5.16,3.73-18.37,13.45-21.71,17.95l-1.46.04-.03,1.46c-.16.15-.58,2.36-.75,2.99-2.82-.11-2.33,6.18-2.28,7.89.04,1.3-.09,6.05,2.28,5.58.17.64.59,2.84.75,2.99l.03,1.46,1.46.04c.38.65,1.02,1.49,1.5,2.24,3.91,6.16,11.79,8.13,19.05,7.44,1.36-.13,2.37-1.32,3.74-1.37,1.08-.04,2.1.87,3.59.53,2.7-.62,20.45-12.02,22.67-14.07,1.97-1.82,6.64-6.99,6.35-9.74.17-.11.5-.51.75-.75,1.52.09,2.19-.77,2.25-2.24,4.07-3.9,5.09-8.68,5.99-14.21,2.01-.44,1.51,1.01,1.73,2.34.69,4.16.9,6.48-.41,10.58-4.01,12.58-31.92,31.7-44.54,34.03-19.34,3.57-37.75-15.93-27.92-34.63,2.1-4,14.96-15.24,19.07-17.59,1.92-1.1,5.64-2.5,7.89-2.96Z"/>
    <path class="cls-5" d="M769.3,496.18c.3,2.75-4.37,7.92-6.35,9.74-2.22,2.05-19.96,13.45-22.67,14.07-1.49.34-2.51-.57-3.59-.53-1.37.05-2.38,1.24-3.74,1.37-7.26.69-15.14-1.29-19.05-7.44,7,4.61,11.38,7.27,20.25,5.65,7.11-1.3,27.5-17.85,35.15-22.85Z"/>
    <path class="cls-5" d="M710.17,493.19c-1.16,4.36-1.15,9.14,0,13.46-2.37.47-2.25-4.28-2.28-5.58-.05-1.7-.54-8,2.28-7.89Z"/>
    <path class="cls-4" d="M777.53,472.24h1.49c.71,1.34-.73,2.84-.75,2.99-1.01-.89-.62-1.96-.75-2.99Z"/>
    <path class="cls-5" d="M772.29,493.19c-.06,1.47-.73,2.33-2.25,2.24.49-.45,1.51-1.54,2.25-2.24Z"/>
    <path class="cls-4" d="M738.61,467.75c-.82.58-1.64,1.06-2.25,1.5l.03-1.47,2.22-.03Z"/>
    <path class="cls-5" d="M710.91,509.64c.65.62.15-.81,1.5,1.5l-1.46-.04-.03-1.46Z"/>
    <path class="cls-5" d="M712.41,488.7c-1.33,1.79-.79.83-1.5,1.5l.03-1.46,1.46-.04Z"/>
    <path class="cls-4" d="M898.79,570.23c0,.08,1.05.68.74,1.49h-1.49c.2-.5.07-1.16.75-1.49Z"/>
  </g>
</svg>